<svg width="33" height="32" viewBox="0 0 33 32" fill="none" xmlns="http://www.w3.org/2000/svg">
<path d="M16.5 20.625C22.1863 20.625 26.8125 15.9988 26.8125 10.3125C26.8125 4.62625 22.1863 0 16.5 0C10.8137 0 6.1875 4.62625 6.1875 10.3125C6.1875 15.9988 10.8137 20.625 16.5 20.625ZM14.6888 4.99937C15.8988 3.9775 15.9019 3.96125 16.5 3.44688C17.115 3.97563 17.1131 3.98812 18.3113 4.99937C20.3469 6.71688 22.0888 8.1125 22.0888 10.2256C22.0888 12.1669 20.6556 13.6875 18.8256 13.6875C18.3294 13.6875 17.8612 13.5712 17.4375 13.3525V15H19.3125V16.875H13.6875V15H15.5625V13.3525C15.1388 13.5712 14.6706 13.6875 14.1744 13.6875C12.3444 13.6875 10.9113 12.1669 10.9113 10.2256C10.9113 8.1875 12.4956 6.85 14.6888 4.99937Z" fill="#2DB155"/>
<path d="M14.1744 11.8125C15.0081 11.8125 15.4213 10.9562 15.56 10.5881L15.7894 9.93749H17.2106L17.44 10.5881C17.5788 10.9562 17.9919 11.8125 18.8256 11.8125C19.7369 11.8125 20.2138 11.0144 20.2138 10.2256C20.2138 9.06249 19.0344 8.06311 17.1019 6.43186C16.9056 6.26624 16.7056 6.09749 16.5 5.92249C16.2944 6.09749 16.0944 6.26624 15.8981 6.43186C13.7963 8.20561 12.7863 9.10811 12.7863 10.2256C12.7863 11.0144 13.2631 11.8125 14.1744 11.8125Z" fill="#2DB155"/>
<path d="M12.75 21.9094V30.125L16.5 32L20.25 30.125V21.9094C19.0681 22.2931 17.8075 22.5 16.5 22.5C15.1925 22.5 13.9319 22.2931 12.75 21.9094Z" fill="#2DB155"/>
<path d="M8.0625 26.0169L10.875 27.4231V21.1219C9.84187 20.5825 8.89562 19.8994 8.0625 19.0988V26.0169Z" fill="#2DB155"/>
<path d="M22.125 27.4231L24.9375 26.0169V19.0988C24.1044 19.8994 23.1581 20.5825 22.125 21.1219V27.4231Z" fill="#2DB155"/>
</svg>
