<svg width="55" height="55" viewBox="0 0 55 55" fill="none" xmlns="http://www.w3.org/2000/svg">
<rect x="1.5" y="1" width="52" height="53" rx="26" stroke="#F96464" stroke-width="2"/>
<path d="M18.3984 19.752V34H15.5859V22.9941L12.207 24.0684V21.8516L18.0957 19.752H18.3984ZM32.6074 30.1035C32.6074 30.9954 32.3991 31.7474 31.9824 32.3594C31.5658 32.9648 30.9928 33.4238 30.2637 33.7363C29.541 34.0423 28.7207 34.1953 27.8027 34.1953C26.8848 34.1953 26.0612 34.0423 25.332 33.7363C24.6029 33.4238 24.0267 32.9648 23.6035 32.3594C23.1803 31.7474 22.9688 30.9954 22.9688 30.1035C22.9688 29.5046 23.0892 28.9642 23.3301 28.4824C23.571 27.9941 23.9062 27.5775 24.3359 27.2324C24.7721 26.8809 25.2832 26.6139 25.8691 26.4316C26.4551 26.2428 27.0931 26.1484 27.7832 26.1484C28.7077 26.1484 29.5345 26.3112 30.2637 26.6367C30.9928 26.9622 31.5658 27.4212 31.9824 28.0137C32.3991 28.6061 32.6074 29.3027 32.6074 30.1035ZM29.7754 29.918C29.7754 29.4818 29.6908 29.1074 29.5215 28.7949C29.3587 28.4759 29.1276 28.2318 28.8281 28.0625C28.5286 27.8932 28.1803 27.8086 27.7832 27.8086C27.3861 27.8086 27.0378 27.8932 26.7383 28.0625C26.4388 28.2318 26.2044 28.4759 26.0352 28.7949C25.8724 29.1074 25.791 29.4818 25.791 29.918C25.791 30.3477 25.8724 30.7188 26.0352 31.0312C26.2044 31.3438 26.4388 31.5846 26.7383 31.7539C27.0443 31.9167 27.3991 31.998 27.8027 31.998C28.2064 31.998 28.5547 31.9167 28.8477 31.7539C29.1471 31.5846 29.375 31.3438 29.5312 31.0312C29.694 30.7188 29.7754 30.3477 29.7754 29.918ZM32.3047 23.5508C32.3047 24.2734 32.1126 24.9147 31.7285 25.4746C31.3444 26.028 30.8105 26.4609 30.127 26.7734C29.4499 27.0859 28.6751 27.2422 27.8027 27.2422C26.9238 27.2422 26.1426 27.0859 25.459 26.7734C24.7754 26.4609 24.2415 26.028 23.8574 25.4746C23.4733 24.9147 23.2812 24.2734 23.2812 23.5508C23.2812 22.6914 23.4733 21.9688 23.8574 21.3828C24.248 20.7904 24.7819 20.3411 25.459 20.0352C26.1426 19.7292 26.9173 19.5762 27.7832 19.5762C28.6621 19.5762 29.4401 19.7292 30.1172 20.0352C30.8008 20.3411 31.3346 20.7904 31.7188 21.3828C32.1094 21.9688 32.3047 22.6914 32.3047 23.5508ZM29.4922 23.6777C29.4922 23.2936 29.4238 22.9616 29.2871 22.6816C29.1504 22.3952 28.9551 22.1738 28.7012 22.0176C28.4538 21.8613 28.1478 21.7832 27.7832 21.7832C27.4316 21.7832 27.1289 21.8581 26.875 22.0078C26.6276 22.1576 26.4355 22.3757 26.2988 22.6621C26.1686 22.9421 26.1035 23.2806 26.1035 23.6777C26.1035 24.0618 26.1686 24.4004 26.2988 24.6934C26.4355 24.9798 26.6309 25.2044 26.8848 25.3672C27.1387 25.5299 27.4447 25.6113 27.8027 25.6113C28.1608 25.6113 28.4635 25.5299 28.7109 25.3672C28.9648 25.2044 29.1569 24.9798 29.2871 24.6934C29.4238 24.4004 29.4922 24.0618 29.4922 23.6777ZM43.8281 26.0801V28.5312H34.082V26.0801H43.8281ZM40.293 22.2227V32.5742H37.627V22.2227H40.293Z" fill="#F96464"/>
</svg>
