<svg width="42" height="42" viewBox="0 0 42 42" fill="none" xmlns="http://www.w3.org/2000/svg">
<rect width="42" height="42" rx="6" fill="url(#paint0_linear_546_1785)"/>
<path d="M30.8627 25.3239L21.5785 15.2319C21.5123 15.1601 21.4253 15.1016 21.3248 15.0613C21.2242 15.021 21.1129 15 21 15C20.8871 15 20.7758 15.021 20.6752 15.0613C20.5747 15.1016 20.4877 15.1601 20.4215 15.2319L11.1373 25.3239C11.059 25.4082 11.0122 25.5079 11.0021 25.6119C10.992 25.7159 11.019 25.82 11.0802 25.9126C11.1405 26.004 11.2317 26.0806 11.3439 26.1341C11.456 26.1875 11.5847 26.2156 11.7158 26.2154H30.2842C30.4153 26.2156 30.544 26.1875 30.6561 26.1341C30.7683 26.0806 30.8595 26.004 30.9198 25.9126C30.981 25.82 31.008 25.7159 30.9979 25.6119C30.9878 25.5079 30.941 25.4082 30.8627 25.3239Z" fill="white"/>
<defs>
<linearGradient id="paint0_linear_546_1785" x1="21" y1="0" x2="21" y2="42" gradientUnits="userSpaceOnUse">
<stop stop-color="#0C8792"/>
<stop offset="1" stop-color="#054146"/>
</linearGradient>
</defs>
</svg>
