<svg width="24" height="25" viewBox="0 0 24 25" fill="none" xmlns="http://www.w3.org/2000/svg">
<g clip-path="url(#clip0_543_244)">
<path d="M5.88382 18.6529C5.88382 19.2797 6.40622 19.7913 7.04897 19.7913H8.38096V23.0161C8.38096 23.8331 9.05105 24.5 9.87431 24.5C10.7003 24.5 11.3677 23.8357 11.3677 23.0161V19.7886H13.6925V23.0135C13.6925 23.8304 14.3626 24.4973 15.1858 24.4973C16.0118 24.4973 16.6792 23.8331 16.6792 23.0135V19.7886H18.0112C18.6539 19.7886 19.1763 19.277 19.1763 18.6503V8.06502H5.88382V18.6529ZM15.6508 2.57955L16.8789 0.838553C16.95 0.736772 16.9336 0.600171 16.8378 0.533209C16.7421 0.468927 16.6054 0.501068 16.5342 0.602849L15.2597 2.41348C14.42 2.08939 13.4846 1.90993 12.5027 1.90993C11.5208 1.90993 10.5854 2.08939 9.74576 2.41348L8.47121 0.605528C8.4001 0.503747 8.26335 0.468927 8.16762 0.535888C8.07189 0.600171 8.05548 0.734093 8.12659 0.841231L9.35465 2.58223C7.40179 3.47147 6.03425 5.15622 5.85921 7.12488H19.1517C18.9712 5.15354 17.6009 3.46879 15.6508 2.57955ZM9.69653 5.32496C9.55102 5.32496 9.40877 5.2827 9.28778 5.20353C9.16679 5.12436 9.07248 5.01184 9.0168 4.88018C8.96111 4.74853 8.94654 4.60366 8.97493 4.46389C9.00332 4.32413 9.07339 4.19575 9.17629 4.09498C9.27918 3.99422 9.41028 3.9256 9.553 3.8978C9.69572 3.87 9.84365 3.88426 9.97809 3.9388C10.1125 3.99333 10.2274 4.08568 10.3083 4.20417C10.3891 4.32265 10.4323 4.46195 10.4323 4.60446C10.4318 4.79539 10.3541 4.97837 10.2162 5.11338C10.0784 5.2484 9.89151 5.32447 9.69653 5.32496ZM15.3965 5.32496C15.2509 5.32496 15.1087 5.2827 14.9877 5.20353C14.8667 5.12436 14.7724 5.01184 14.7167 4.88018C14.661 4.74853 14.6465 4.60366 14.6748 4.46389C14.7032 4.32413 14.7733 4.19575 14.8762 4.09498C14.9791 3.99422 15.1102 3.9256 15.2529 3.8978C15.3956 3.87 15.5436 3.88426 15.678 3.9388C15.8124 3.99333 15.9274 4.08568 16.0082 4.20417C16.089 4.32265 16.1322 4.46195 16.1322 4.60446C16.1317 4.79539 16.054 4.97837 15.9161 5.11338C15.7783 5.2484 15.5914 5.32447 15.3965 5.32496ZM21.5066 8.02216C20.6806 8.02216 20.0133 8.68642 20.0133 9.50603V15.3022C20.0133 16.1191 20.6834 16.7861 21.5066 16.7861C22.3326 16.7861 23 16.1218 23 15.3022V9.50335C23.0027 8.68374 22.3354 8.02216 21.5066 8.02216ZM3.49336 8.02216C2.66736 8.02216 2 8.68642 2 9.50603V15.3022C2 16.1191 2.6701 16.7861 3.49336 16.7861C4.31935 16.7861 4.98671 16.1218 4.98671 15.3022V9.50335C4.98671 8.68374 4.31662 8.02216 3.49336 8.02216Z" fill="#2DB155"/>
</g>
<defs>
<clipPath id="clip0_543_244">
<rect width="24" height="24" fill="white" transform="translate(0 0.5)"/>
</clipPath>
</defs>
</svg>
