<svg width="24" height="25" viewBox="0 0 24 25" fill="none" xmlns="http://www.w3.org/2000/svg">
<g clip-path="url(#clip0_543_242)">
<path d="M17.885 13.1832C17.8741 11.2159 18.714 9.7333 20.4102 8.64007C19.4615 7.19782 18.0263 6.40458 16.1345 6.2517C14.3432 6.10171 12.3834 7.35935 11.6658 7.35935C10.9074 7.35935 9.17325 6.30362 7.80873 6.30362C4.9927 6.34977 2 8.68622 2 13.4399C2 14.8446 2.24192 16.2955 2.72575 17.7897C3.37268 19.7569 5.70486 24.5769 8.13762 24.4991C9.40973 24.4673 10.3094 23.5414 11.9648 23.5414C13.5712 23.5414 14.403 24.4991 15.8219 24.4991C18.2764 24.4616 20.3857 20.08 21 18.107C17.7083 16.46 17.885 13.2841 17.885 13.1832ZM15.0282 4.38543C16.4063 2.64895 16.2813 1.06825 16.2405 0.5C15.0227 0.574997 13.6147 1.37977 12.8129 2.36916C11.9295 3.43066 11.4103 4.7431 11.5217 6.22285C12.8373 6.32958 14.0388 5.61134 15.0282 4.38543Z" fill="black"/>
</g>
<defs>
<clipPath id="clip0_543_242">
<rect width="24" height="24" fill="white" transform="translate(0 0.5)"/>
</clipPath>
</defs>
</svg>
