<svg width="16" height="16" viewBox="0 0 16 16" fill="none" xmlns="http://www.w3.org/2000/svg">
<path d="M3.60158 -2.69765e-05C3.49605 -0.000470839 3.39462 0.0409035 3.3194 0.114946C3.24418 0.188988 3.20127 0.289718 3.20002 0.395273V1.59981H0.798446C0.693228 1.60013 0.589102 1.62129 0.492022 1.66182C0.394941 1.70235 0.306807 1.76146 0.232657 1.83603C0.158507 1.91061 0.0997951 1.99917 0.0598755 2.09643C0.0199559 2.19368 -0.000387938 2.29785 5.60224e-06 2.40296V3.8308C5.60224e-06 5.36193 0.914717 6.74773 2.32345 7.35085L3.22345 7.73674C3.3726 9.129 4.19998 10.3741 5.44534 11.0536L7.20159 12.0144V14.3985H5.60315C5.4981 14.3981 5.394 14.4183 5.29678 14.4581C5.19956 14.4979 5.11114 14.5565 5.03656 14.6305C4.96198 14.7045 4.9027 14.7925 4.86212 14.8894C4.82153 14.9863 4.80043 15.0903 4.80002 15.1954C4.7994 15.3011 4.81974 15.4058 4.85986 15.5036C4.89999 15.6014 4.9591 15.6905 5.03378 15.7653C5.10847 15.8401 5.19724 15.8994 5.29497 15.9397C5.39269 15.98 5.49744 16.0005 5.60315 16H10.4032C10.5083 15.9996 10.6124 15.9785 10.7094 15.9378C10.8064 15.8972 10.8945 15.8378 10.9685 15.7631C11.0425 15.6883 11.1011 15.5997 11.1408 15.5023C11.1805 15.4049 11.2007 15.3006 11.2 15.1954C11.1992 14.9843 11.115 14.782 10.9657 14.6327C10.8164 14.4835 10.6142 14.3993 10.4032 14.3985H8.80159V12.0066L10.5797 10.9942C11.7911 10.3096 12.5959 9.09659 12.7657 7.73674L13.6735 7.34624C15.0805 6.7433 16.0001 5.35825 16.0001 3.82767V2.39982C16.0005 2.29425 15.98 2.18962 15.9398 2.092C15.8996 1.99438 15.8404 1.9057 15.7658 1.83105C15.6911 1.7564 15.6024 1.69722 15.5048 1.65702C15.4071 1.61682 15.3025 1.59624 15.1969 1.59667H12.8V0.395273C12.7988 0.289718 12.7559 0.188988 12.6807 0.114946C12.6054 0.0409034 12.504 -0.000471239 12.3985 -2.69765e-05H3.60158ZM12.8 3.19651H14.4001V3.82767C14.4001 4.72284 13.8698 5.52497 13.0469 5.87761L12.8 5.98373L12.8 3.19651ZM1.59532 3.19965H3.20002V5.98521L2.95627 5.88057C2.13238 5.52786 1.59532 4.72628 1.59532 3.8308V3.19965Z" fill="white"/>
</svg>
