<svg width="16" height="16" viewBox="0 0 16 16" fill="none" xmlns="http://www.w3.org/2000/svg">
<path d="M7.95957 5.41494L8.38889 4.5L8.8182 5.41494L9.77777 5.56134L9.08274 6.27377L9.24635 7.27777L8.38889 6.80322L7.53142 7.27777L7.69503 6.27377L7 5.56134L7.95957 5.41494Z" fill="white"/>
<path d="M4.61135 9.61131C3.54323 9.20585 3.02588 8.30906 3.20852 7.18082C2.48598 6.29569 2.48598 5.26062 3.20852 4.37472C3.02589 3.24648 3.54324 2.34968 4.61135 1.94424C5.01735 0.876403 5.9145 0.359604 7.04156 0.541595C7.92633 -0.180532 8.96246 -0.180532 9.84723 0.541595C10.9758 0.358883 11.8714 0.876395 12.2774 1.94423C13.3456 2.34968 13.8629 3.24647 13.6803 4.37472C14.4028 5.26061 14.4028 6.29568 13.6803 7.18081C13.8629 8.30905 13.3455 9.20585 12.2774 9.6113C11.8714 10.6791 10.975 11.196 9.84722 11.014C9.40483 11.375 8.92458 11.5556 8.44439 11.5556C7.9642 11.5556 7.48394 11.375 7.04156 11.014C5.91521 11.1952 5.01735 10.6791 4.61135 9.61131ZM8.44669 7.69727L10.574 8.81533L10.1663 6.44683L11.8867 4.76935L9.50997 4.42345L8.44669 2.26999L7.3834 4.42346L5.00669 4.76936L6.72707 6.44683L6.32088 8.81533L8.44669 7.69727Z" fill="white"/>
<path d="M12.6845 11.5555L14.2222 14.2974L11.9318 14.349L10.5317 16L8.88883 13.0591C9.26919 12.9854 9.63339 12.8528 9.98949 12.6538C11.082 12.6832 12.037 12.2852 12.6845 11.5555Z" fill="white"/>
<path d="M4.19856 11.5555C4.84698 12.2852 5.8034 12.6832 6.8976 12.6538C7.25424 12.8528 7.61899 12.9854 7.99997 13.0591L6.36267 16L4.96046 14.349L2.66664 14.2974L4.19856 11.5555Z" fill="white"/>
</svg>
